<?xml version="1.0" standalone="no"?>
<!DOCTYPE svg PUBLIC "-//W3C//DTD SVG 20010904//EN"
 "http://www.w3.org/TR/2001/REC-SVG-20010904/DTD/svg10.dtd">
<svg version="1.0" xmlns="http://www.w3.org/2000/svg"
 width="206.000000pt" height="206.000000pt" viewBox="0 0 206.000000 206.000000"
 preserveAspectRatio="xMidYMid meet">
<metadata>
Created by potrace 1.14, written by Peter Selinger 2001-2017
</metadata>
<g transform="translate(0.000000,206.000000) scale(0.100000,-0.100000)"
fill="#000000" stroke="none">
<path d="M186 1637 c-13 -10 -14 -18 -6 -47 6 -19 11 -134 11 -255 l1 -220
338 -337 c185 -186 340 -338 343 -338 4 0 7 268 7 595 0 468 -3 595 -13 596
-6 0 -138 2 -292 4 -154 2 -301 6 -327 8 -27 3 -53 1 -62 -6z m500 -56 l141
-1 0 -505 c1 -278 -2 -505 -6 -505 -3 0 -134 127 -291 283 l-284 282 -1 213
c0 117 2 217 5 221 9 14 29 16 163 14 72 -1 195 -2 273 -2z"/>
<path d="M1177 1632 c-16 -3 -17 -49 -17 -598 0 -327 3 -594 6 -594 3 0 158
152 344 338 l339 338 0 257 c-1 188 -4 257 -12 258 -32 3 -646 4 -660 1z m568
-55 l50 -2 0 -219 0 -219 -237 -236 c-130 -130 -261 -260 -291 -290 l-55 -53
0 508 c0 280 1 511 3 514 3 5 423 3 530 -3z"/>
</g>
</svg>
