<svg xmlns="http://www.w3.org/2000/svg" id="Layer_1" width="406" height="306" class="illustration styles_illustrationTablet__1DWOa" data-name="Layer 1" viewBox="0 0 400 300"><path fill="#f4a28c" d="M170.55,109.57s3.8-9.55,6.41-9.15.54,4.09.54,4.09,6.49-2.75,8.56-.81S175.48,113,175.48,113Z"/><polygon fill="#68e1fd" points="150.22 131.91 169.48 107.92 177.79 113.62 162.99 153.96 144.09 154.04 150.22 131.91"/><polygon points="150.22 131.91 169.48 107.92 177.79 113.62 162.99 153.96 144.09 154.04 150.22 131.91" opacity=".09"/><polygon fill="#24285b" points="272.41 123.12 286.37 153.96 259.8 153.96 272.41 123.12"/><polygon fill="#fff" points="272.41 123.12 286.37 153.96 259.8 153.96 272.41 123.12" opacity=".44"/><path fill="#24285b" d="M176.33,146.27l17.47-38.6a5.29,5.29,0,0,1,4.82-3.11h76.31a4.59,4.59,0,0,1,4.25,6.32l-16.48,40.3a4.46,4.46,0,0,1-4.14,2.78H181.29A5.44,5.44,0,0,1,176.33,146.27Z"/><path fill="#fff" d="M186.59,144.07l14.62-32.31a3.27,3.27,0,0,1,3-1.91h63.05A1.92,1.92,0,0,1,269,112.5l-14,34.15a3.26,3.26,0,0,1-3,2H189.55A3.25,3.25,0,0,1,186.59,144.07Z"/><polygon fill="#e6e6e6" points="248.26 113.62 236.72 141.51 251.47 141.51 261.4 113.62 248.26 113.62"/><polygon fill="#e6e6e6" points="206.5 113.62 203.62 119.83 242.33 119.83 244.61 113.62 206.5 113.62" opacity=".51"/><rect width="63.9" height="44.74" x="178.26" y="39.63" fill="#e6e6e6" opacity=".66"/><rect width="49.42" height="34.6" x="277.08" y="62.12" fill="#e6e6e6" opacity=".31"/><ellipse cx="197.85" cy="255.09" fill="#e6e6e6" opacity=".3" rx="173.87" ry="14.02"/><rect width="233.95" height="100.63" x="77.1" y="153.96" fill="#e6e6e6"/><rect width="158.99" height="86.15" x="91.54" y="168.44" fill="#c1c1c1"/><polygon fill="#24285b" points="134.49 207.71 130.1 250.74 139.05 250.74 150.22 205.3 141.7 201.94 134.49 207.71"/><rect width="9.94" height="34.62" x="109.26" y="209.15" fill="#ffd200"/><rect width="9.94" height="34.62" x="109.26" y="209.15" opacity=".15"/><path fill="#24285b" d="M100,183.16s.47,11.8,7.09,16.37c4.34,3,26.26,4.65,40.82,5.43a12.36,12.36,0,0,1,11.6,13.87l-4,31.91h9.14l8.61-38.14a19.9,19.9,0,0,0-12.75-23.13l-20.42-7.25Z"/><polygon fill="#f4a28c" points="138.99 86.64 137.01 99.18 125.77 100.17 132.32 80.06 138.99 86.64"/><path fill="#f4a28c" d="M136.56,73a5.9,5.9,0,0,1,8,5.81C144.37,83.51,143.2,90,138.05,89c-7.88-1.58-6.15-11.84-6.15-11.84A10.71,10.71,0,0,1,136.56,73Z"/><path fill="#68e1fd" d="M92.17,143.06c-2.88-16.8,4.32-34,18.76-43a33.73,33.73,0,0,1,21.45-5.32c26.62,2.46,36.4,32.9,22.45,56.1a151.61,151.61,0,0,0-9.5,19.1l-5.2,12.32-41.12.7Z"/><path fill="#68e1fd" d="M131,250.74l-.8,3.81a3.16,3.16,0,0,0,3.09,3.81h7.84a1.9,1.9,0,0,0,1-3.5l-6.5-4.12Z"/><path fill="#68e1fd" d="M157.25,250.74l-.8,3.81a3.15,3.15,0,0,0,3.09,3.81h7.83a1.9,1.9,0,0,0,1-3.5c-1.78-1.13-4-2.52-6.51-4.12Z"/><path fill="#68e1fd" d="M130.16,111.48a13.16,13.16,0,0,1,21.62-8.84,36.78,36.78,0,0,1,9.4,12.16c7.69,16.11,19.95,26.69,61.31,25.72v10.1s-60.12,12.74-81.75-11.54C131.51,128.73,129.47,119.11,130.16,111.48Z"/><path fill="#fff" d="M130.16,111.48a13.16,13.16,0,0,1,21.62-8.84,36.78,36.78,0,0,1,9.4,12.16c7.69,16.11,19.95,26.69,61.31,25.72v10.1s-60.12,12.74-81.75-11.54C131.51,128.73,129.47,119.11,130.16,111.48Z" opacity=".44"/><path fill="#68e1fd" d="M330.63,243.08s-9.08-2.48-11.05-10.92c0,0,14.06-2.85,14.46,11.67Z" opacity=".58"/><path fill="#68e1fd" d="M331.74,242.18s-6.34-10-.76-19.4c0,0,10.7,6.8,5.94,19.43Z" opacity=".73"/><rect width="1.92" height="23.64" x="230.2" y="131.09" fill="#ffd200" transform="translate(-40.48 134.73) rotate(-30)"/><path fill="#68e1fd" d="M333.38,242.19s3.35-10.59,13.48-12.59c0,0,1.89,6.87-6.56,12.62Z"/><polygon fill="#24285b" points="326.79 241.95 328.63 254.54 340.22 254.59 341.93 242.02 326.79 241.95"/><path fill="#f4a28c" d="M222.49,143.27s8.29-5.53,12.62-1.68-12.62,9-12.62,9Z"/><path d="M134.47,85.35l-2.09,9.35s-22.88,13.58-24.15,34.56c0,0-3.59,37.81,18.13,53l-24.08.7L93,124.76s7.2-28.18,34.65-30.2l2.87-8.81Z" opacity=".09"/><path fill="#24285b" d="M129.05,80.26s-1.26,4.21,2,5.88,7.46-6,7.46-6,7.34-1.26,10.38-5.1c1.66-2.11-.59-5-3.15-4.17a4.81,4.81,0,0,1-4.66-1.14C136.47,66,125.89,68.68,129.05,80.26Z"/><path fill="#f4a28c" d="M139,80.28s-.22-2.82-2.75-1.71-.73,4.71,1,4.61S139,80.28,139,80.28Z"/><path fill="#ffd200" d="M90.32,199.32s48.16-8.68,53.45-.27.6,21.64-19.66,18S79,224.33,90.32,199.32Z"/><path fill="#ffd200" d="M89.4,182.3a23.93,23.93,0,0,1-18.64-30.48c4.11-13.6,12.07-28.08,27.28-27C123,126.6,138.13,191.34,89.4,182.3Z"/><path d="M95.57,124.78S67.16,157.86,93,177.73l-5.32,4.49S64.5,174.9,71,151C71,151,78.48,125.21,95.57,124.78Z" opacity=".09"/><path fill="#ffd200" d="M102.39,212.42a4.7,4.7,0,0,1-2.44-.69c-20.27-12.3-9.72-53.44-8.46-58.09a4.71,4.71,0,0,1,9.09,2.48h0c-2.72,10-7.79,40.25,4.25,47.56a4.71,4.71,0,0,1-2.44,8.74Z"/><path fill="#fff" d="M102.39,212.42a4.7,4.7,0,0,1-2.44-.69c-20.27-12.3-9.72-53.44-8.46-58.09a4.71,4.71,0,0,1,9.09,2.48h0c-2.72,10-7.79,40.25,4.25,47.56a4.71,4.71,0,0,1-2.44,8.74Z" opacity=".44"/><polygon fill="#ffd200" points="109.26 243.77 91.54 259.32 138.48 259.32 119.2 243.77 109.26 243.77"/><circle cx="195.12" cy="53.75" r="7.45" fill="#e6e6e6"/><rect width="21" height="29.17" x="211.71" y="47.42" fill="#c1c1c1" opacity=".45"/><rect width="14.43" height="9.78" x="188.95" y="66.81" fill="#c1c1c1"/><rect width="47.16" height="27.17" x="203.37" y="227.42" opacity=".09"/></svg>